<svg xmlns="http://www.w3.org/2000/svg" width="20" height="20" viewBox="0 0 20 20">
  <path id="Path_103" d="M15.49,9.63A11.792,11.792,0,0,0,12.06,2,12.188,12.188,0,0,0,8.51,9.63,13.867,13.867,0,0,1,12,12.26a14.358,14.358,0,0,1,3.49-2.63Zm-6.5,2.65c-.14-.1-.3-.19-.45-.29C8.69,12.1,8.85,12.18,8.99,12.28Zm6.42-.25c-.13.09-.27.16-.4.26C15.14,12.19,15.28,12.12,15.41,12.03ZM12,15.45A11.946,11.946,0,0,0,2,10a12.174,12.174,0,0,0,8.03,11.49A10.749,10.749,0,0,0,12,22a12.94,12.94,0,0,0,1.97-.51A12.174,12.174,0,0,0,22,10,11.946,11.946,0,0,0,12,15.45Z" transform="translate(-2 -2)" fill="#fff"/>
</svg>
