
<svg xmlns="http://www.w3.org/2000/svg" width="18" height="21.602" viewBox="0 0 18 21.602">
  <g id="Group_666" data-name="Group 666" transform="translate(2711.945 -1606.268)">
    <path id="Path_204" data-name="Path 204" d="M.59.64,3.768,1.683H14.692L17.473.64l-.6,3.227v13.8l.6,3.972-2.781-.894H3.768l-3.178.6.745-3.227V4.264Z" transform="translate(-2712 1606)" fill="#fff"/>
    <path id="Shape" d="M3.672,20.63A26.829,26.829,0,0,0,9,21.242a26.83,26.83,0,0,0,5.331-.612A4.492,4.492,0,0,0,17,21.6a.944.944,0,0,0,.9-.711,3.463,3.463,0,0,0-.94-3.2,44.46,44.46,0,0,0,.683-6.895,44.459,44.459,0,0,0-.682-6.895,3.462,3.462,0,0,0,.94-3.2A.944.944,0,0,0,17,0a4.492,4.492,0,0,0-2.664.972A26.829,26.829,0,0,0,9,.36,26.829,26.829,0,0,0,3.672.972,4.492,4.492,0,0,0,1.006,0,.944.944,0,0,0,.1.711a3.463,3.463,0,0,0,.94,3.2A44.46,44.46,0,0,0,.362,10.8,44.46,44.46,0,0,0,1.043,17.7a3.463,3.463,0,0,0-.94,3.2.944.944,0,0,0,.9.711,4.492,4.492,0,0,0,2.666-.972Zm-2.887.027a2.762,2.762,0,0,1,.421-2.033c.023.122.044.239.065.35a.36.36,0,1,0,.707-.134,47.8,47.8,0,0,1-.9-8.04,47.8,47.8,0,0,1,.9-8.041.36.36,0,0,0-.707-.132c-.021.111-.042.228-.065.35A2.762,2.762,0,0,1,.785.945C.861.72.959.72,1.006.72a3.921,3.921,0,0,1,1.712.468l-.108.026a.36.36,0,0,0,.172.7A27.536,27.536,0,0,1,9,1.08a27.536,27.536,0,0,1,6.221.832.36.36,0,0,0,.172-.7l-.108-.026A3.921,3.921,0,0,1,17,.72c.047,0,.144,0,.221.224A2.762,2.762,0,0,1,16.8,2.977c-.023-.122-.044-.239-.065-.35a.36.36,0,1,0-.707.134,47.8,47.8,0,0,1,.9,8.041,47.8,47.8,0,0,1-.9,8.041.36.36,0,1,0,.707.134c.021-.111.042-.228.065-.35a2.762,2.762,0,0,1,.421,2.033c-.077.224-.175.224-.221.224a3.921,3.921,0,0,1-1.712-.468l.108-.026a.36.36,0,0,0-.172-.7A27.536,27.536,0,0,1,9,20.522a27.536,27.536,0,0,1-6.221-.832.36.36,0,1,0-.172.7l.108.026a3.921,3.921,0,0,1-1.711.467c-.047,0-.145,0-.221-.224Z" transform="translate(-2711.948 1606.268)" fill="#008577"/>
    <g id="_021---Fertiliser" data-name="021---Fertiliser" transform="translate(-2711.945 1606.268)">
      <path id="Shape-2" data-name="Shape" d="M10,20.366A5.424,5.424,0,1,0,15.424,15,5.4,5.4,0,0,0,10,20.366Zm5.424,4.651a4.709,4.709,0,0,1-3.36-1.4,1.081,1.081,0,0,1,.829-.384,1.064,1.064,0,0,1,.669.239.365.365,0,0,0,.308.071.361.361,0,0,0,.246-.2,1.455,1.455,0,0,1,1.175-.819,3.53,3.53,0,0,1-.2.559.355.355,0,0,0,.034.359.363.363,0,0,0,.626-.065,4.3,4.3,0,0,0,.256-.736,1.458,1.458,0,0,1,.721.7.361.361,0,0,0,.246.2.365.365,0,0,0,.308-.071,1.064,1.064,0,0,1,.669-.239,1.081,1.081,0,0,1,.829.384A4.709,4.709,0,0,1,15.424,25.017Zm.261-5.816a1.423,1.423,0,0,1,.352-1.03,1.723,1.723,0,0,1,1.28-.179.046.046,0,0,1,.023.028,1.685,1.685,0,0,1-.349,1.227,1.71,1.71,0,0,1-1.249.184Zm-.645.4a1.7,1.7,0,0,1-1.193.4,1.6,1.6,0,0,1-.88-.93.055.055,0,0,1,.008-.041,2.024,2.024,0,0,1,1.043-.436.727.727,0,0,1,.176.021,1.471,1.471,0,0,1,.787.754Zm5.084.764a4.584,4.584,0,0,1-.873,2.69,1.8,1.8,0,0,0-2.072-.365,2.188,2.188,0,0,0-1.049-.772,5.262,5.262,0,0,0-.152-1.743c.072.005.145.011.223.011a1.92,1.92,0,0,0,1.265-.4,2.3,2.3,0,0,0,.6-1.793.758.758,0,0,0-.624-.705,2.341,2.341,0,0,0-1.878.345,1.622,1.622,0,0,0-.456.712,1.623,1.623,0,0,0-.736-.424,2.294,2.294,0,0,0-1.828.537.757.757,0,0,0-.229.919A2.282,2.282,0,0,0,13.674,20.7a1.476,1.476,0,0,0,.349.041,2.383,2.383,0,0,0,1.241-.422,4.674,4.674,0,0,1,.145,1.482,2.183,2.183,0,0,0-1.741.894,1.791,1.791,0,0,0-2.071.362,4.608,4.608,0,0,1,.049-5.451,4.727,4.727,0,0,1,5.249-1.656,4.653,4.653,0,0,1,3.229,4.417Z" transform="translate(-6.424 -9.565)" fill="#008577"/>
      <path id="Shape-3" data-name="Shape" d="M7.252,9.777a18.749,18.749,0,0,1,6.1-1.053,18.749,18.749,0,0,1,6.1,1.053.363.363,0,0,0,.355-.066A.356.356,0,0,0,19.69,9.1a19,19,0,0,0-12.677,0,.357.357,0,0,0-.22.456.362.362,0,0,0,.46.218Z" transform="translate(-4.351 -5.147)" fill="#008577"/>
      <path id="Shape-4" data-name="Shape" d="M7.009,47.695a18.914,18.914,0,0,0,12.677,0,.357.357,0,0,0,.22-.456.362.362,0,0,0-.46-.218,18.749,18.749,0,0,1-6.1,1.053,18.749,18.749,0,0,1-6.1-1.053.362.362,0,0,0-.46.218.357.357,0,0,0,.22.456Z" transform="translate(-4.347 -30.048)" fill="#008577"/>
    </g>
  </g>
</svg>
