<svg id="Group_668" data-name="Group 668" xmlns="http://www.w3.org/2000/svg" width="20" height="19.004" viewBox="0 0 20 19.004">
  <circle id="Ellipse_4" data-name="Ellipse 4" cx="2.5" cy="2.5" r="2.5" transform="translate(0 4)" fill="#fff"/>
  <circle id="Ellipse_5" data-name="Ellipse 5" cx="2.5" cy="2.5" r="2.5" transform="translate(4.833)" fill="#fff"/>
  <circle id="Ellipse_6" data-name="Ellipse 6" cx="2.5" cy="2.5" r="2.5" transform="translate(10.833)" fill="#fff"/>
  <circle id="Ellipse_7" data-name="Ellipse 7" cx="2.5" cy="2.5" r="2.5" transform="translate(15 4)" fill="#fff"/>
  <path id="Path_4" data-name="Path 4" d="M17.34,14.86c-.87-1.02-1.6-1.89-2.48-2.91a4.243,4.243,0,0,0-1.75-1.32,2.025,2.025,0,0,0-.33-.09A5.033,5.033,0,0,0,12,10.5a4.2,4.2,0,0,0-.79.05,2.025,2.025,0,0,0-.33.09,4.308,4.308,0,0,0-1.75,1.32c-.87,1.02-1.6,1.89-2.48,2.91-1.31,1.31-2.92,2.76-2.62,4.79a3.14,3.14,0,0,0,2.33,2.32c.73.15,3.06-.44,5.54-.44h.18c2.48,0,4.81.58,5.54.44a3.155,3.155,0,0,0,2.33-2.32c.31-2.04-1.3-3.49-2.61-4.8Z" transform="translate(-1.667 -3)" fill="#fff"/>
</svg>
